<svg xmlns="http://www.w3.org/2000/svg" width="24" height="24" fill="#0A66C2" viewBox="0 0 24 24">
  <path d="M20.447 20.452H17.21v-5.569c0-1.328-.024-3.037-1.852-3.037-1.853 0-2.137 1.445-2.137 2.939v5.667h-3.239V9h3.108v1.561h.045c.434-.824 1.495-1.69 3.078-1.69 3.29 0 3.895 2.164 3.895 4.978v6.603zM5.337 7.433a1.877 1.877 0 1 1 0-3.754 1.877 1.877 0 0 1 0 3.754zM6.812 20.452H3.859V9h2.953v11.452zM22.225 0H1.771C.792 0 0 .774 0 1.729v20.542C0 23.226.792 24 1.771 24h20.451C23.2 24 24 23.226 24 22.271V1.729C24 .774 23.2 0 22.225 0z"></path>
</svg>
